<svg width="280" height="60" viewBox="0 0 280 60" fill="none" xmlns="http://www.w3.org/2000/svg">
<rect width="280" height="60" fill="#1D428A"/>
<mask id="mask0_835_2" style="mask-type:luminance" maskUnits="userSpaceOnUse" x="16" y="10" width="41" height="41">
<path d="M57 10H16V51H57V10Z" fill="white"/>
</mask>
<g mask="url(#mask0_835_2)">
<mask id="mask1_835_2" style="mask-type:luminance" maskUnits="userSpaceOnUse" x="16" y="10" width="41" height="41">
<path d="M57 10H16V51H57V10Z" fill="white"/>
</mask>
<g mask="url(#mask1_835_2)">
<path d="M26.8859 37.1176L26.8351 37.6527C26.7305 37.6108 26.6289 37.5764 26.5302 37.5525C26.4824 37.5421 26.4346 37.5331 26.3868 37.5271C26.3404 37.5212 26.2941 37.5182 26.2478 37.5182C26.1088 37.5182 25.9997 37.5406 25.9205 37.5854C25.8427 37.6302 25.8024 37.6915 25.8024 37.7677C25.8024 37.8215 25.8218 37.8679 25.8622 37.9097C25.901 37.9501 25.9623 37.9845 26.043 38.0128L26.1581 38.0487C26.454 38.1429 26.6513 38.228 26.7484 38.3028C26.8381 38.3715 26.9053 38.4507 26.9472 38.5434C26.9905 38.636 27.0114 38.7422 27.0114 38.8632C27.0114 39.1472 26.9158 39.3639 26.7275 39.5163C26.5377 39.6672 26.2627 39.7435 25.904 39.7435C25.777 39.7435 25.647 39.7345 25.5154 39.7166C25.3839 39.6986 25.2539 39.6717 25.1239 39.6344L25.1822 39.0575C25.3032 39.1128 25.4213 39.1546 25.5364 39.183C25.5917 39.1965 25.647 39.2069 25.7023 39.2144C25.7576 39.2219 25.8114 39.2249 25.8622 39.2249C25.9967 39.2249 26.1043 39.1995 26.1835 39.1487C26.2627 39.0978 26.3031 39.0276 26.3031 38.9409C26.3031 38.8333 26.176 38.7362 25.9249 38.6465L25.7845 38.5972C25.5394 38.509 25.363 38.4074 25.2569 38.2893C25.1508 38.1713 25.097 38.0218 25.097 37.8365C25.097 37.5779 25.1897 37.3792 25.3765 37.2372C25.5633 37.0967 25.8293 37.025 26.176 37.025C26.3075 37.025 26.4301 37.0324 26.5437 37.0489C26.6035 37.0564 26.6602 37.0653 26.7155 37.0758C26.7708 37.0863 26.8276 37.1012 26.8844 37.1176M28.6509 37.6108H29.2935V39.6837H29.984V37.6108H30.6266V37.0922H28.6509V37.6108ZM33.6575 38.6405H32.9969L33.3332 37.6706L33.6575 38.6405ZM31.9463 39.6822H32.6308L32.8236 39.1337H33.8204L34.0042 39.6822H34.7425L33.7621 37.0907H32.9297L31.9463 39.6822ZM36.3461 39.6822H36.9693V38.3147C36.9693 38.2699 36.9678 38.2146 36.9633 38.1503C36.9588 38.0861 36.9558 38.0263 36.9498 37.974C36.9409 37.8828 36.9334 37.8081 36.9259 37.7513C36.9185 37.6945 36.9095 37.6258 36.8961 37.5466C36.926 37.6587 36.9543 37.7528 36.9797 37.8305C37.0126 37.9217 37.0455 38.0024 37.0799 38.0711L37.86 39.6822H38.7178V37.0907H38.0946V38.5583C38.0946 38.6405 38.0991 38.7377 38.1096 38.8468C38.12 38.9559 38.1365 39.0754 38.1574 39.204C38.1365 39.1412 38.1155 39.0799 38.0946 39.0156C38.0662 38.9305 38.0498 38.8796 38.0438 38.8632C38.008 38.7631 37.9781 38.6898 37.9541 38.645L37.2039 37.0922H36.3416V39.6837L36.3461 39.6822ZM41.647 38.5957C41.78 38.5957 41.8787 38.6211 41.9459 38.6719C42.0132 38.7227 42.0461 38.7959 42.0461 38.8946C42.0461 38.9932 42.0087 39.0724 41.9355 39.1247C41.8623 39.177 41.7546 39.204 41.6157 39.204H41.3437V38.5957H41.647ZM41.5873 37.5585C41.7203 37.5585 41.8204 37.5824 41.8877 37.6287C41.9564 37.6751 41.9893 37.7453 41.9893 37.838C41.9893 37.9396 41.9534 38.0143 41.8802 38.0637C41.8085 38.113 41.6994 38.1369 41.5529 38.1369H41.3437V37.5585H41.5858H41.5873ZM40.6697 39.6822H41.677C42.0386 39.6822 42.3061 39.6239 42.481 39.5058C42.6543 39.3893 42.741 39.2084 42.741 38.9648C42.741 38.8004 42.6932 38.6659 42.5976 38.5583C42.5019 38.4507 42.3659 38.382 42.1896 38.3491C42.348 38.3058 42.4675 38.234 42.5497 38.1354C42.6319 38.0367 42.6738 37.9127 42.6738 37.7618C42.6738 37.5391 42.5946 37.3717 42.4361 37.2596C42.2777 37.1475 42.0416 37.0907 41.7292 37.0907H40.6682V39.6822H40.6697ZM44.5912 38.5987C44.5912 38.9783 44.6839 39.2637 44.8707 39.455C45.056 39.6463 45.331 39.742 45.6956 39.742C46.0603 39.742 46.3428 39.6478 46.5266 39.458C46.7104 39.2682 46.8016 38.9828 46.8016 38.5987V37.0907H46.144V38.5987C46.144 38.8049 46.1066 38.9603 46.0304 39.0665C45.9542 39.1726 45.8421 39.2264 45.6956 39.2264C45.5492 39.2264 45.446 39.1771 45.3803 39.0769C45.3145 38.9768 45.2817 38.8184 45.2817 38.5987V37.0907H44.5912V38.5987ZM48.7474 39.6822H50.4795V39.1711H49.4394V37.0922H48.7489V39.6837L48.7474 39.6822ZM22.5205 36.8606H23.2109V36.5154H22.5205V36.8606ZM22.5205 39.6822H23.2109V37.0907H22.5205V39.6822ZM19.2266 44.3032C19.3865 44.4825 19.4672 44.7097 19.4672 44.9832C19.4672 45.3897 19.3223 45.6916 19.0308 45.8873C18.7409 46.0831 18.2926 46.1817 17.6858 46.1817H16V41.8462H17.7754C18.2985 41.8462 18.6916 41.9404 18.9576 42.1287C19.2236 42.317 19.3551 42.5979 19.3551 42.9701C19.3551 43.2226 19.2864 43.4304 19.1474 43.5963C19.0099 43.7607 18.8082 43.8802 18.5436 43.9535C18.8381 44.0088 19.0667 44.1253 19.2266 44.3047M17.1313 43.5963H17.4825C17.7261 43.5963 17.9099 43.5544 18.031 43.4722C18.1521 43.39 18.2119 43.2645 18.2119 43.0956C18.2119 42.9402 18.1551 42.8236 18.0415 42.7459C17.9279 42.6682 17.759 42.6278 17.5378 42.6278H17.1313V43.5963ZM18.306 44.8636C18.306 44.6992 18.2507 44.5752 18.1386 44.49C18.0265 44.4063 17.8606 44.363 17.638 44.363H17.1313V45.3822H17.5856C17.8188 45.3822 17.9981 45.3374 18.1207 45.2492C18.2432 45.161 18.306 45.0325 18.306 44.8636ZM26.6109 43.677L25.7441 41.8462H24.4319L25.9877 44.5707V46.1817H27.143V44.5587L28.7181 41.8462H27.4733L26.6094 43.677H26.6109ZM31.7819 44.3704C31.7819 44.7142 31.7191 44.9757 31.5906 45.1535C31.4636 45.3314 31.2768 45.4211 31.0302 45.4211C30.7836 45.4211 30.6117 45.3374 30.5026 45.1715C30.392 45.0041 30.3382 44.7381 30.3382 44.3719V41.8477H29.183V44.3704C29.183 45.0056 29.3384 45.4823 29.6493 45.8022C29.9601 46.122 30.4204 46.2834 31.0302 46.2834C31.6399 46.2834 32.1136 46.125 32.4215 45.8066C32.7279 45.4898 32.8818 45.0101 32.8818 44.3704V41.8477H31.7819V44.3719V44.3704ZM32.3244 40.8838H31.2259V41.4621H32.3244V40.8838ZM30.8389 40.8838H29.7404V41.4621H30.8389V40.8838ZM21.9257 40.8838H20.8272V41.4621H21.9257V40.8838ZM22.8687 44.3704C22.8687 44.7142 22.8044 44.9757 22.6774 45.1535C22.5504 45.3314 22.3636 45.4211 22.117 45.4211C21.8704 45.4211 21.6985 45.3374 21.5894 45.1715C21.4788 45.0041 21.425 44.7381 21.425 44.3719V41.8477H20.2683V44.3704C20.2683 45.0056 20.4237 45.4823 20.7346 45.8022C21.0454 46.122 21.5057 46.2834 22.1155 46.2834C22.7252 46.2834 23.199 46.125 23.5069 45.8066C23.8132 45.4898 23.9672 45.0101 23.9672 44.3704V41.8477H22.8672V44.3719L22.8687 44.3704ZM23.4097 40.8838H22.3113V41.4621H23.4097V40.8838ZM37.7464 41.8462H36.4537L35.1116 43.7203V41.8462H33.9564V46.1817H35.1116V44.1702L36.4746 46.1817H37.9108L36.1533 43.8384L37.7449 41.8462H37.7464ZM43.4718 44.3585H45.2234V43.5335H43.4718V42.6592H45.3265V41.8477H42.3166V46.1832H45.3967V45.3463H43.4718V44.3585ZM48.8894 43.5021H47.5399V41.8462H46.3846V46.1817H47.5399V44.3704H48.8894V46.1817H50.0446V41.8462H48.8894V43.5021ZM51.1282 41.4606H52.2834V40.8823H51.1282V41.4606ZM51.1282 46.1817H52.2834V41.8462H51.1282V46.1817ZM57 46.1817H55.794L55.4129 44.9951C55.3516 44.8053 55.2694 44.6738 55.1648 44.5991C55.0602 44.5244 54.8943 44.4885 54.6686 44.4885H54.5012V46.1817H53.3699V41.8462H55.0945C55.6699 41.8462 56.0958 41.9389 56.3723 42.1242C56.6488 42.3095 56.7878 42.5935 56.7878 42.9761C56.7878 43.2555 56.7146 43.4842 56.5696 43.665C56.4246 43.8459 56.2124 43.9684 55.9329 44.0327C56.1586 44.1164 56.3424 44.3525 56.4814 44.744L57 46.1832V46.1817ZM55.6564 43.1763C55.6564 42.9805 55.5862 42.8371 55.4472 42.7459C55.3082 42.6547 55.0886 42.6084 54.7867 42.6084H54.4997V43.7203H54.9048C55.1573 43.7203 55.3456 43.6755 55.4681 43.5843C55.5922 43.4931 55.6535 43.3572 55.6535 43.1763M41.0462 43.8728C40.8833 43.7487 40.5546 43.6067 40.0584 43.4483L39.8656 43.387C39.7296 43.3407 39.628 43.2824 39.5622 43.2152C39.4965 43.1464 39.4636 43.0672 39.4636 42.9791C39.4636 42.8505 39.5294 42.7489 39.6594 42.6742C39.7909 42.5994 39.9732 42.5606 40.2064 42.5606C40.2841 42.5606 40.3618 42.5666 40.4395 42.5755C40.5172 42.586 40.5979 42.5994 40.6786 42.6174C40.843 42.6577 41.0134 42.7145 41.1883 42.7848L41.2734 41.8896C41.1778 41.8612 41.0836 41.8373 40.991 41.8193C40.8983 41.8014 40.8027 41.7864 40.7025 41.773C40.5112 41.7461 40.3065 41.7326 40.0868 41.7326C39.5069 41.7326 39.0616 41.8507 38.7492 42.0868C38.4369 42.323 38.2814 42.6577 38.2814 43.0896C38.2814 43.3975 38.3711 43.6501 38.549 43.8459C38.7268 44.0431 39.0212 44.215 39.4307 44.3615L39.6653 44.4436C40.0883 44.5931 40.299 44.756 40.299 44.9353C40.299 45.0818 40.2318 45.1984 40.0988 45.2836C39.9658 45.3687 39.7864 45.4121 39.5607 45.4121C39.4755 45.4121 39.3859 45.4061 39.2932 45.3941C39.2005 45.3822 39.1079 45.3643 39.0152 45.3418C38.824 45.2955 38.6267 45.2253 38.4234 45.1311L38.3263 46.0981C38.5445 46.1593 38.7627 46.2042 38.9824 46.2355C39.1049 46.252 39.2275 46.2639 39.3485 46.2714L39.3022 46.7586H40.4007L40.4559 46.1758C40.6726 46.113 40.8609 46.0248 41.0119 45.9053C41.3287 45.6482 41.4872 45.2836 41.4872 44.8083C41.4872 44.6066 41.4513 44.4287 41.3796 44.2733C41.3078 44.1178 41.1957 43.9833 41.0462 43.8698M24.4753 49.8164C24.5709 49.924 24.6188 50.0585 24.6188 50.2229C24.6188 50.4665 24.5321 50.6458 24.3572 50.7639C24.1839 50.8804 23.9149 50.9402 23.5532 50.9402H22.5444V48.3473H23.6055C23.9178 48.3473 24.154 48.4041 24.3124 48.5162C24.4708 48.6282 24.55 48.7971 24.55 49.0198C24.55 49.1707 24.5082 49.2963 24.426 49.3934C24.3438 49.4921 24.2227 49.5638 24.0643 49.6071C24.2406 49.64 24.3766 49.7103 24.4723 49.8164M23.2214 49.3934H23.4306C23.5771 49.3934 23.6862 49.368 23.7579 49.3187C23.8312 49.2694 23.867 49.1947 23.867 49.093C23.867 49.0004 23.8327 48.9301 23.7654 48.8838C23.6967 48.8375 23.5965 48.8136 23.4635 48.8136H23.2199V49.3934H23.2214ZM23.9238 50.1526C23.9238 50.054 23.8909 49.9793 23.8237 49.9285C23.7564 49.8776 23.6578 49.8522 23.5248 49.8522H23.2214V50.4605H23.4934C23.6339 50.4605 23.74 50.4336 23.8132 50.3813C23.8865 50.329 23.9238 50.2513 23.9238 50.1511M26.5287 49.8492H27.5764V49.3561H26.5287V48.833H27.6376V48.3473H25.8368V50.9402H27.6795V50.4396H26.5287V49.8492ZM29.706 48.3473H29.0141V50.9402H30.7477V50.4276H29.706V48.3458V48.3473ZM32.5755 49.8492H33.6231V49.3561H32.5755V48.833H33.6844V48.3473H31.8835V50.9402H33.7262V50.4396H32.5755V49.8492ZM37.3041 48.9884C37.3997 49.1737 37.4475 49.3875 37.4475 49.6296C37.4475 49.8971 37.3982 50.1242 37.2981 50.311C37.1979 50.4979 37.0455 50.6518 36.8378 50.7729C36.7361 50.8311 36.6061 50.8745 36.4462 50.9014C36.37 50.9133 36.2758 50.9238 36.1652 50.9313C36.0546 50.9387 35.9336 50.9417 35.8036 50.9417H34.9816V48.3488H35.8902C36.1294 48.3488 36.3282 48.3637 36.4866 48.3936C36.645 48.4235 36.775 48.4698 36.8766 48.5311C37.0649 48.6522 37.2069 48.8046 37.3041 48.9899M36.7391 49.6296C36.7391 49.3815 36.6704 49.1887 36.5329 49.0527C36.3954 48.9167 36.1981 48.8479 35.9411 48.8479H35.678V50.4216H35.9769C36.2205 50.4216 36.4073 50.3529 36.5404 50.2139C36.6734 50.0764 36.7391 49.8806 36.7391 49.6296ZM41.39 49.4427L40.8714 48.3473H40.0868L41.0179 49.9763V50.9402H41.7098V49.9688L42.6514 48.3458H41.9071L41.39 49.4413V49.4427ZM44.3028 49.8492H45.3504V49.3561H44.3028V48.833H45.4117V48.3473H43.6108V50.9402H45.4536V50.4396H44.3028V49.8492ZM48.2961 49.5593C48.1989 49.4846 48.0016 49.4009 47.7057 49.3052L47.5907 49.2694C47.5085 49.241 47.4487 49.2066 47.4098 49.1663C47.371 49.1259 47.3501 49.0781 47.3501 49.0243C47.3501 48.9481 47.3889 48.8868 47.4681 48.842C47.5458 48.7971 47.6549 48.7747 47.7954 48.7747C47.8417 48.7747 47.8881 48.7777 47.9344 48.7837C47.9807 48.7897 48.0285 48.7986 48.0779 48.8091C48.1765 48.833 48.2781 48.8674 48.3827 48.9092L48.4336 48.3742C48.3768 48.3577 48.32 48.3428 48.2647 48.3323C48.2094 48.3219 48.1511 48.3129 48.0928 48.3054C47.9792 48.289 47.8552 48.2815 47.7252 48.2815C47.3785 48.2815 47.1124 48.3518 46.9256 48.4937C46.7388 48.6357 46.6462 48.8345 46.6462 49.093C46.6462 49.2768 46.6999 49.4278 46.806 49.5459C46.9122 49.6639 47.0885 49.7656 47.3336 49.8537L47.4741 49.903C47.7266 49.9927 47.8537 50.0899 47.8537 50.1975C47.8537 50.2856 47.8133 50.3544 47.7341 50.4052C47.6549 50.456 47.5473 50.4814 47.4128 50.4814C47.362 50.4814 47.3082 50.4769 47.2529 50.471C47.1976 50.465 47.1423 50.453 47.087 50.4396C46.9734 50.4112 46.8554 50.3693 46.7328 50.314L46.6745 50.8924C46.8046 50.9283 46.9346 50.9567 47.0661 50.9746C47.1976 50.9925 47.3261 51.0015 47.4547 51.0015C47.8148 51.0015 48.0898 50.9253 48.2796 50.7743C48.4694 50.6234 48.5636 50.4052 48.5636 50.1212C48.5636 50.0002 48.5427 49.8941 48.4993 49.8014C48.456 49.7088 48.3902 49.6281 48.299 49.5608M38.537 50.9402H39.2275V48.3473H38.537V50.9402ZM38.537 48.1171H39.2275V47.7719H38.537V48.1171ZM49.7637 48.1171H50.4541V47.7719H49.7637V48.1171ZM49.7637 50.9402H50.4541V48.3473H49.7637V50.9402ZM31.8865 25.9104V25.2454H31.2229V25.9104H30.5594V25.2454H29.8943V25.9104H29.2293V25.2454H28.5642V25.9104C28.5642 30.1697 31.9194 33.6444 36.1309 33.8357V30.509C33.7546 30.3207 31.8865 28.3345 31.8865 25.9104ZM43.7707 25.2454H44.4358V25.9104C44.4358 30.1697 41.0806 33.6444 36.8691 33.8357V30.509C39.2454 30.3207 41.1135 28.3345 41.1135 25.9104V25.2454H41.7786V25.9104H42.4421V25.2454H43.1072V25.9104H43.7722V25.2454H43.7707ZM32.6233 22.1966H28.5792C28.8018 21.2849 29.6223 20.6094 30.6012 20.6094C31.5801 20.6094 32.4006 21.2864 32.6233 22.1966ZM40.3767 22.1966C40.5979 21.2849 41.4199 20.6094 42.3988 20.6094C43.3777 20.6094 44.1982 21.2864 44.4208 22.1966H40.3767ZM32.6233 24.6984H27.8289C28.092 23.6178 29.0649 22.8153 30.2261 22.8153C31.3873 22.8153 32.3603 23.6178 32.6233 24.6984ZM42.7739 22.8153C43.9351 22.8153 44.908 23.6178 45.1711 24.6984H40.3752C40.6383 23.6178 41.6112 22.8153 42.7724 22.8153M40.3737 25.9597V19.9982L40.9267 19.4482V18.8952H40.3737V16.6625L39.8193 13.3402L39.2663 16.6625V18.8952H38.1589V16.658L38.7134 16.108V15.555H38.1589V13.3223L37.6059 10L37.0515 13.3223V15.555H35.9441V13.3223L35.3896 10L34.8366 13.3223V15.555H34.2822V16.108L34.8366 16.658V18.8952H33.7292V16.6625L33.1762 13.3402L32.6233 16.6625V18.8952H32.0688V19.4482L32.6233 19.9982V25.9089C32.6233 28.049 34.3584 29.7841 36.4985 29.7841C38.6386 29.7841 40.3454 28.0759 40.3723 25.9597M39.6519 26.5202H37.5566L38.6043 24.7058L39.6519 26.5202ZM38.1604 19.9982L38.7149 19.4482L39.2678 19.9982V23.1979C38.9495 22.8736 38.5759 22.6046 38.1604 22.4073V19.9982ZM37.5521 22.8825L38.5998 24.6984H36.5045L37.5521 22.8825ZM35.947 16.6595L36.5 16.1095L37.053 16.6595V18.8967H35.9455V16.6595H35.947ZM35.947 19.9982L36.5 19.4482L37.053 19.9982V22.074C36.8721 22.0486 36.6868 22.0337 36.5 22.0337C36.3132 22.0337 36.1279 22.0486 35.947 22.074V19.9982ZM35.4479 22.8825L36.4955 24.6984H34.4002L35.4479 22.8825ZM33.7322 19.9982L34.2851 19.4482L34.8396 19.9982V22.4073C34.4242 22.6046 34.0505 22.8736 33.7322 23.1979V19.9982ZM33.3481 26.5202L34.3957 24.7058L35.4434 26.5202H33.3481ZM34.4002 28.3434L35.4479 26.5276L36.4955 28.3434H34.4002ZM35.4524 26.5202L36.5 24.7058L37.5476 26.5202H35.4524ZM36.5045 28.3434L37.5521 26.5276L38.5998 28.3434H36.5045Z" fill="white"/>
</g>
</g>
<path d="M251.993 21.44L248.713 27.66C246.873 26.62 244.093 25.32 240.633 25.32C238.593 25.32 237.033 25.88 237.033 27.14C237.033 28.72 239.893 28.88 242.753 29.44L243.653 29.62C249.433 30.74 252.373 33.52 252.373 37.82C252.373 44.9 246.393 47.52 240.433 47.52C235.413 47.52 230.853 46.32 227.653 44.04L231.373 37.84C233.593 39.18 236.273 40.72 240.533 40.72C242.573 40.72 244.073 40.16 244.073 38.78C244.073 37.32 242.333 37.06 238.853 36.46L237.793 36.28C231.353 35.18 228.673 32.4 228.813 27.44C228.953 22.08 233.453 18.5 240.173 18.5C243.833 18.5 247.133 18.88 251.993 21.44Z" fill="white"/>
<path d="M224.464 19V47H216.864V29.48L212.364 44.4H204.264L199.764 29.48V47H192.164V19H202.704L208.324 35.84L213.924 19H224.464Z" fill="white"/>
<path d="M176.569 18.48C182.049 18.48 186.909 21.1 189.349 25.58L182.609 29.3C181.249 26.98 179.169 25.76 176.449 25.76C172.569 25.76 169.689 28.72 169.689 33C169.689 37.78 173.009 40.24 176.469 40.24C179.129 40.24 181.269 39.04 182.789 36.72L189.029 41.08C186.389 45.04 182.109 47.52 176.569 47.52C167.909 47.52 161.789 41.52 161.789 33C161.789 24.48 167.909 18.48 176.569 18.48Z" fill="white"/>
<path d="M127.594 19H140.154C147.674 19 151.014 22.08 151.014 27.04C151.014 29.76 149.474 31.84 147.294 32.94C149.734 33.86 151.574 36.22 151.574 38.96C151.574 43.92 148.274 47 140.874 47H127.594V19ZM140.454 36.02H135.194V40.82L140.454 40.84C142.634 40.84 143.754 40.04 143.754 38.42C143.754 36.84 142.634 36.02 140.454 36.02ZM139.994 25.2H135.194V29.86H139.974C142.074 29.86 143.134 29.08 143.134 27.52C143.134 25.98 142.074 25.2 139.994 25.2Z" fill="white"/>
<path d="M100.602 19H113.162C120.682 19 124.022 22.08 124.022 27.04C124.022 29.76 122.482 31.84 120.302 32.94C122.742 33.86 124.582 36.22 124.582 38.96C124.582 43.92 121.282 47 113.882 47H100.602V19ZM113.462 36.02H108.202V40.82L113.462 40.84C115.642 40.84 116.762 40.04 116.762 38.42C116.762 36.84 115.642 36.02 113.462 36.02ZM113.002 25.2H108.202V29.86H112.982C115.082 29.86 116.142 29.08 116.142 27.52C116.142 25.98 115.082 25.2 113.002 25.2Z" fill="white"/>
<path d="M96.6 19V47H89V19H96.6ZM92.3 9.19995C94.72 9.19995 96.58 11.06 96.58 13.48C96.58 15.9 94.72 17.76 92.3 17.76C89.88 17.76 88.02 15.9 88.02 13.48C88.02 11.06 89.88 9.19995 92.3 9.19995Z" fill="white"/>
</svg>
